<svg width="20" height="20" viewBox="0 0 20 20" fill="none" xmlns="http://www.w3.org/2000/svg">
<path fill-rule="evenodd" clip-rule="evenodd" d="M0.868532 0.868631C1.49337 0.243792 2.50643 0.243792 3.13127 0.868631L9.9999 7.73726L16.8685 0.868631C17.4934 0.243792 18.5064 0.243792 19.1313 0.868631C19.7561 1.49347 19.7561 2.50653 19.1313 3.13137L12.2626 10L19.1313 16.8686C19.7561 17.4935 19.7561 18.5065 19.1313 19.1314C18.5064 19.7562 17.4934 19.7562 16.8685 19.1314L9.9999 12.2627L3.13127 19.1314C2.50643 19.7562 1.49337 19.7562 0.868532 19.1314C0.243693 18.5065 0.243693 17.4935 0.868532 16.8686L7.73716 10L0.868532 3.13137C0.243693 2.50653 0.243693 1.49347 0.868532 0.868631Z" fill="white"/>
</svg>
