<svg width="12" height="12" viewBox="0 0 12 12" fill="none" xmlns="http://www.w3.org/2000/svg">
<path fill-rule="evenodd" clip-rule="evenodd" d="M1.43451 1.43433C1.74693 1.12191 2.25346 1.12191 2.56588 1.43433L6.0002 4.86864L9.43451 1.43433C9.74693 1.12191 10.2535 1.12191 10.5659 1.43433C10.8783 1.74675 10.8783 2.25328 10.5659 2.5657L7.13157 6.00001L10.5659 9.43433C10.8783 9.74675 10.8783 10.2533 10.5659 10.5657C10.2535 10.8781 9.74693 10.8781 9.43451 10.5657L6.0002 7.13138L2.56588 10.5657C2.25346 10.8781 1.74693 10.8781 1.43451 10.5657C1.12209 10.2533 1.12209 9.74675 1.43451 9.43433L4.86882 6.00001L1.43451 2.5657C1.12209 2.25328 1.12209 1.74675 1.43451 1.43433Z" fill="#303036" stroke="#303036" stroke-width="2" stroke-linecap="round"/>
</svg>
