<svg width="18" height="17" viewBox="0 0 18 17" fill="none" xmlns="http://www.w3.org/2000/svg">
<path d="M8.04896 1.92664C8.34833 1.00537 9.65167 1.00538 9.95104 1.92664L11.0208 5.21864C11.1547 5.63063 11.5386 5.90957 11.9718 5.90958L15.4333 5.90971C16.402 5.90975 16.8047 7.1493 16.0211 7.71871L13.2208 9.75341C12.8703 10.008 12.7237 10.4594 12.8575 10.8714L13.927 14.1635C14.2263 15.0847 13.1719 15.8508 12.3882 15.2815L9.58775 13.247C9.23728 12.9924 8.76272 12.9924 8.41225 13.247L5.61179 15.2815C4.82809 15.8508 3.77367 15.0847 4.07297 14.1635L5.14249 10.8714C5.27634 10.4594 5.1297 10.008 4.77924 9.75341L1.97894 7.71871C1.19528 7.1493 1.59804 5.90975 2.56672 5.90971L6.02818 5.90958C6.46137 5.90957 6.8453 5.63063 6.97918 5.21864L8.04896 1.92664Z" stroke="#5C5C5C" stroke-width="2"/>
</svg>
